Coordinates
version=1
nRows=13
nColumns=36
inDegrees=yes

Units are S.I. units (second, meters, Newtons, ...)
If the header above contains a line with 'inDegrees', this indicates whether rotational values are in degrees (yes) or radians (no).

endheader
time	pelvis_tilt	pelvis_list	pelvis_rotation	pelvis_tx	pelvis_ty	pelvis_tz	hip_flexion_r	hip_adduction_r	hip_rotation_r	knee_angle_r	knee_angle_r_beta	ankle_angle_r	subtalar_angle_r	mtp_angle_r	hip_flexion_l	hip_adduction_l	hip_rotation_l	knee_angle_l	knee_angle_l_beta	ankle_angle_l	subtalar_angle_l	mtp_angle_l	lumbar_extension	lumbar_bending	lumbar_rotation	arm_flex_r	arm_add_r	arm_rot_r	elbow_flex_r	pro_sup_r	arm_flex_l	arm_add_l	arm_rot_l	elbow_flex_l	pro_sup_l
      1.23750000	    -17.44006568	      2.45141130	     -0.82846313	     -0.87653390	      1.07342094	     -0.05691557	     44.14527332	     -6.67860955	      1.08452936	     80.44502511	      1.40403056	     46.45364065	     -9.48602361	     -7.49999987	     45.71590193	     -4.16540844	     -4.79280765	     80.60808553	      1.40687650	     39.53730213	    -13.32955815	     -7.49999987	    -29.57464318	      0.91176382	      4.27365455	     56.26916975	    -13.80452800	     13.40003664	     52.78569190	     73.69125967	     53.68081081	     -6.59313549	     25.21801915	     68.08172061	     72.72775434
      1.24166670	    -18.16216195	      2.01973724	     -0.50979876	     -0.87697441	      1.07369560	     -0.05190750	     44.94002670	     -5.94109419	      0.72531143	     80.64230171	      1.40747368	     46.76065959	     -9.76526290	     -7.49999987	     46.62520853	     -4.72353855	     -4.33585582	     80.97522089	      1.41328422	     39.24172171	    -13.82917643	     -7.49999987	    -28.10822670	      1.09011235	      4.29193683	     56.97999578	    -13.96849734	     14.63318832	     54.54315873	     73.81984540	     54.85600167	     -7.04381291	     25.21714920	     69.57082375	     72.56720308
      1.24583330	    -18.74285567	      1.58586145	     -0.20057213	     -0.87560868	      1.07072618	     -0.05119231	     45.57039092	     -5.27667113	      0.37496496	     80.93812757	      1.41263682	     47.01746619	     -9.57841956	     -7.49999987	     47.57096965	     -5.22642416	     -3.76929809	     81.47514749	      1.42200958	     39.58780088	    -13.41100598	     -7.49999987	    -26.69883071	      1.32813717	      4.12908214	     57.82486192	    -14.18522697	     16.26113348	     55.99624442	     72.13445955	     56.35527901	     -7.59961447	     25.43336955	     70.67546432	     70.30235573
      1.25000000	    -19.07474904	      1.42048627	      0.05543616	     -0.87087590	      1.07493162	     -0.04930562	     45.51507818	     -4.81590976	      0.23927428	     80.62157534	      1.40711194	     46.96127090	     -9.46395093	     -7.49999987	     47.59686918	     -5.43675384	     -3.53945376	     81.05676090	      1.41470736	     39.53761419	    -13.19257531	     -7.49999987	    -25.65372325	      1.15785033	      4.00025564	     58.44919300	    -13.92718636	     16.29782535	     56.35648011	     72.15044981	     57.71779770	     -7.65867939	     25.18351970	     70.90651764	     70.27692061
      1.25416670	    -19.38464470	      0.89084588	      0.35709931	     -0.86393256	      1.07795742	     -0.05150934	     44.93077122	     -4.30807510	     -0.20349030	     79.72502074	      1.39146411	     46.46586206	     -9.67185075	     -7.49999987	     47.50135891	     -5.85895868	     -3.09697843	     80.62265915	      1.40713085	     39.91925411	    -11.77299171	     -7.49999987	    -24.47663780	      1.73674977	      3.61154072	     58.46959051	    -13.81989891	     16.79040613	     58.07125415	     72.27336140	     58.55474988	     -8.25112417	     25.54584852	     71.41031555	     70.00650371
      1.25833330	    -19.61303866	      0.80831400	      0.70082510	     -0.85898475	      1.08285289	     -0.04861575	     44.10936169	     -4.15906658	     -0.30699493	     78.46463541	      1.36946623	     46.07473619	     -9.78256672	     -7.49999987	     46.93047148	     -5.83222165	     -2.95635990	     79.41443341	      1.38604334	     39.53398294	    -11.19642263	     -7.49999987	    -23.34909335	      1.68623539	      3.35138573	     58.46749123	    -13.74601238	     16.80571625	     58.53763492	     72.28710743	     59.12323183	     -8.06292700	     25.50324262	     71.72160054	     69.92055142
      1.26250000	    -19.21857704	      0.56566361	      1.04271862	     -0.85208548	      1.08423397	     -0.04860156	     42.44986624	     -3.92749709	     -0.47530622	     77.34566728	      1.34993656	     45.51772041	    -10.49222830	     -7.49999987	     45.56610247	     -6.00052007	     -2.67462558	     78.46205590	      1.36942121	     40.06418801	    -10.29262195	     -7.49999987	    -23.16241525	      1.92496667	      3.48722054	     58.27390551	    -14.18557954	     16.37182888	     61.16124670	     70.08213352	     59.89692238	     -7.71878916	     25.66169608	     72.69261731	     67.72432463
      1.26666670	    -19.21047293	      0.67965484	      1.13643489	     -0.84495488	      1.08539479	     -0.05100643	     41.39722543	     -4.09483201	     -0.37376849	     76.68663815	      1.33843433	     45.11471536	    -10.88601828	     -7.49999987	     44.38292680	     -5.80055401	     -2.75657759	     77.51977362	      1.35297529	     40.21257181	    -10.15811306	     -7.49999987	    -22.34878840	      1.76636475	      3.30207312	     58.14386312	    -14.18808385	     16.21796233	     62.83597631	     68.73174481	     60.62132233	     -7.95310479	     25.63254154	     72.84839315	     66.32461161
      1.27083330	    -18.95732155	      0.83051879	      1.12600796	     -0.83518898	      1.08389183	     -0.05049046	     39.98197655	     -4.26794501	     -0.31005149	     76.06599993	      1.32760215	     45.15817740	    -10.87491709	     -7.49999987	     42.92742078	     -5.69363614	     -2.97420044	     76.82606670	      1.34086782	     40.39347814	    -10.17040401	     -7.49999987	    -21.64088745	      1.63803665	      3.18538969	     58.01921105	    -14.11260748	     16.26052506	     64.37707997	     69.34094228	     61.41493695	     -8.59758028	     25.08646916	     72.80445139	     65.84395664
      1.27500000	    -18.74168344	      0.97887346	      1.01673194	     -0.82827890	      1.09250245	     -0.05061799	     38.57389233	     -4.26135294	     -0.13417247	     74.81666848	      1.30579720	     44.75306109	    -10.58485423	     -7.49999987	     41.28047236	     -5.60591217	     -3.25071394	     75.46075523	      1.31703863	     39.72966956	    -10.75009957	     -7.49999987	    -20.99475832	      1.47310928	      3.12739451	     57.82236419	    -14.07867532	     16.22228259	     65.76511879	     69.73254998	     61.58455729	     -9.13443977	     24.52344297	     73.13934680	     65.45432751
      1.27916670	    -18.48462906	      1.24547926	      0.95985030	     -0.81948699	      1.09040037	     -0.05097850	     37.26563507	     -4.62226669	     -0.04159961	     74.16292598	      1.29438724	     44.57423399	    -10.15161467	     -7.49999987	     39.85251032	     -5.41999105	     -3.60765799	     74.61391381	      1.30225846	     39.21546440	    -11.19549418	     -7.49999987	    -20.21974944	      1.24296179	      3.19346388	     57.32606489	    -14.42356963	     16.10332277	     67.71147565	     70.10510337	     61.12675119	     -9.48845705	     24.96124614	     75.32889295	     65.18099400
      1.28333330	    -18.36406881	      1.39017556	      0.82487421	     -0.81110055	      1.09296055	     -0.05110964	     36.12915626	     -4.78969435	      0.05202463	     73.36590452	      1.28047659	     44.36072370	     -9.82819803	     -7.49999987	     38.78107194	     -5.33677320	     -3.82661069	     74.09852733	      1.29326327	     38.62002316	    -11.41388178	     -7.49999987	    -19.42309257	      1.11870992	      3.45752364	     57.19109740	    -15.08464527	     15.93996749	     69.51677551	     70.54763480	     60.85265552	     -9.72418365	     25.60167585	     77.67340181	     64.90565514
      1.28750000	    -18.13553399	      1.56405688	      0.73175582	     -0.80410019	      1.09634934	     -0.05349679	     34.78698606	     -5.09013176	      0.08268722	     72.64047884	      1.26781553	     44.32746131	     -9.35592455	     -7.49999987	     37.63941077	     -5.01136851	     -4.01853204	     73.47017202	      1.28229640	     38.46804382	    -11.28154776	     -7.49999987	    -18.71157260	      1.07086902	      3.64333742	     57.25160549	    -15.80051702	     16.10235083	     70.94635586	     70.97777206	     60.78779780	     -9.77572643	     26.35867045	     79.53392549	     64.65738670
